<?xml version="1.0" encoding="utf-8"?>
<!-- Generator: Adobe Illustrator 25.2.0, SVG Export Plug-In . SVG Version: 6.00 Build 0)  -->
<svg version="1.1" id="fa9a32cc-44b8-4cc2-a997-023e29387d3e"
	 xmlns="http://www.w3.org/2000/svg" xmlns:xlink="http://www.w3.org/1999/xlink" x="0px" y="0px" viewBox="0 0 1336.2 725.7"
	 style="enable-background:new 0 0 1336.2 725.7;" xml:space="preserve">
<style type="text/css">
	.st0{fill:#FDB827;}
	.st1{fill:#FFFFFF;}
	.st2{fill:#3F3D56;}
	.st3{fill:#E6E6E6;}
	.st4{opacity:0.3;fill:#FDB827;enable-background:new    ;}
</style>
<path class="st0" d="M536.3,703.5V580.6h-39.8v122.9c-7.8,4.5-12.7,12.9-12.7,21.9H549C549,716.4,544.2,708,536.3,703.5z"/>
<path class="st0" d="M643.1,703.5V580.6h-39.8v122.9c-7.8,4.5-12.7,12.9-12.7,21.9h65.2C655.8,716.4,651,708,643.1,703.5z"/>
<circle class="st0" cx="569" cy="431.8" r="263.3"/>
<ellipse class="st1" cx="569" cy="563.7" rx="104.3" ry="34.8"/>
<circle class="st1" cx="474.6" cy="372.2" r="44.7"/>
<circle class="st1" cx="663.4" cy="372.2" r="44.7"/>
<ellipse transform="matrix(0.1602 -0.9871 0.9871 0.1602 32.4699 781.4451)" class="st2" cx="475.5" cy="371.6" rx="34.8" ry="34.8"/>
<circle class="st2" cx="663.8" cy="371.6" r="34.8"/>
<ellipse class="st2" cx="569" cy="157.7" rx="173.9" ry="134.1"/>
<ellipse class="st2" cx="569" cy="32.6" rx="68.8" ry="32.6"/>
<path class="st2" d="M570.9,470.2c11.4-11.6,29-11.8,43.9-8c17.7,4.6,32.8,15.5,49.2,23.2c8.3,4.1,17.2,6.9,26.4,8.2
	c26.2,3.2,51.9-8.8,66.3-30.9c10.5-16.7,13.5-37,8.2-56c-0.4-1.4-2-2.2-3.4-1.8c-1.4,0.4-2.2,1.8-1.8,3.2
	c4.6,16.5,2.4,34.2-6.1,49.1c-13.1,22.3-38.3,34.4-63.9,30.8c-9-1.6-17.7-4.5-25.8-8.7c-15.9-7.8-30.7-18.1-48.1-22.5
	c-16.7-4.2-36.1-3.4-48.9,9.5C564.6,468.8,568.4,472.7,570.9,470.2L570.9,470.2z"/>
<path class="st2" d="M570.9,466.3c-11.3-11.4-27.9-13.3-43-10.7c-17.4,3-32.4,12.5-47.7,20.6c-15.7,8.3-32.5,14.6-50.5,11.7
	c-16.8-2.5-31.9-11.7-41.9-25.4c-11.1-15.8-14.6-35.8-9.4-54.4c0.3-1.5-0.6-2.9-2-3.3c-1.4-0.3-2.8,0.5-3.2,1.8
	c-4.6,16.9-2.8,34.9,5.1,50.5c8,15.4,21.6,27.2,38,32.9c17,6.1,35,4.8,51.6-2c17.1-7,32.2-18.3,49.7-24.2
	c16.2-5.4,36.7-6.8,49.6,6.3C569.5,472.7,573.4,468.8,570.9,466.3L570.9,466.3z"/>
<circle class="st2" cx="569" cy="467.9" r="19.9"/>
<circle class="st1" cx="460.3" cy="359.8" r="7.2"/>
<circle class="st1" cx="681.2" cy="359.8" r="7.2"/>
<path class="st3" d="M100.2,643.8c0.7,26.9,5.2,53.6,13.4,79.3c0.2,0.6,0.4,1.2,0.6,1.8h50c-0.1-0.5-0.1-1.1-0.2-1.8
	c-3.3-38.3-22.5-271.5,0.4-311.4C162.4,415,96.3,522.1,100.2,643.8z"/>
<path class="st3" d="M103.9,723.1c0.4,0.6,0.9,1.2,1.3,1.8h37.5c-0.3-0.5-0.6-1.1-1-1.8c-6.2-11.2-24.5-44.6-41.5-79.3
	C81.9,606.6,65.1,568,66.5,554C66.1,557.1,53.5,653.3,103.9,723.1z"/>
<rect y="722" class="st2" width="1336.2" height="3.6"/>
<path class="st2" d="M1236.9,723.6l-105-70V111.8c0-2-1.6-3.6-3.6-3.6h-5.4c-2,0-3.6,1.6-3.6,3.6v539.4l-108.6,72.4l13.9-0.2
	l94.7-63.5v63.7h12.7v-61.3l91.1,61.1L1236.9,723.6z"/>
<path class="st3" d="M941.8,164.3c-2,0-3.6,1.6-3.6,3.6v325.8c0,2,1.6,3.6,3.6,3.6h367.4c2,0,3.6-1.6,3.6-3.6V167.9
	c0-2-1.6-3.6-3.6-3.6H941.8z"/>
<path class="st2" d="M1105,160.7c0.8,2.2,2.8,3.6,5.1,3.6h32.6c2.3,0,4.4-1.5,5.1-3.6H1105z"/>
<path class="st2" d="M1030.8,501h191.3c-0.8-2.2-2.8-3.6-5.1-3.6h-181C1033.6,497.4,1031.6,498.8,1030.8,501z"/>
<circle class="st4" cx="1038" cy="279.8" r="50.4"/>
<circle class="st4" cx="1155.3" cy="335.4" r="50.4"/>
<circle class="st4" cx="1088.8" cy="337.9" r="72.6"/>
<circle class="st4" cx="1066.8" cy="364.2" r="72.6"/>
<circle class="st4" cx="1200" cy="385.5" r="72.6"/>
<circle class="st4" cx="1177" cy="280.8" r="72.6"/>
</svg>
