<?xml version="1.0" encoding="utf-8"?>
<!-- Generator: Adobe Illustrator 25.2.0, SVG Export Plug-In . SVG Version: 6.00 Build 0)  -->
<svg version="1.1" id="b6117b06-2b45-45bc-b789-4a82ab6612dd"
	 xmlns="http://www.w3.org/2000/svg" xmlns:xlink="http://www.w3.org/1999/xlink" x="0px" y="0px" viewBox="0 0 1139.2 728.2"
	 style="enable-background:new 0 0 1139.2 728.2;" xml:space="preserve">
<style type="text/css">
	.st0{fill:#3F3D56;}
	.st1{fill:#FDB827;}
	.st2{opacity:0.1;enable-background:new    ;}
	.st3{fill:#F2F2F2;}
</style>
<g>
	<rect x="304.2" y="447.5" class="st0" width="733" height="2"/>
	<path class="st0" d="M683.8,18.7H423.6v-5.4h-118v5.4H44.4c-9.7,0-17.6,7.9-17.6,17.6c0,0,0,0,0,0v356.3c0,9.7,7.9,17.6,17.6,17.6
		h639.4c9.7,0,17.6-7.9,17.6-17.6V36.3C701.4,26.5,693.5,18.7,683.8,18.7L683.8,18.7z"/>
	<rect x="50.4" y="49.8" class="st1" width="627.4" height="353.9"/>
	<circle class="st1" cx="363.6" cy="33.7" r="6.4"/>
	<polygon class="st2" points="498.4,403.7 50.4,403.7 50.4,49.8 	"/>
	<circle class="st3" cx="148.6" cy="316.9" r="60.3"/>
	<rect x="510" y="240.6" class="st0" width="58.6" height="12.2"/>
	<rect x="439.1" y="145.3" class="st0" width="200.3" height="5.2"/>
	<rect x="439.1" y="161.9" class="st0" width="200.3" height="5.2"/>
	<rect x="439.1" y="178.5" class="st0" width="200.3" height="5.2"/>
	<rect x="439.1" y="195.1" class="st0" width="200.3" height="5.2"/>
	<rect x="439.1" y="211.8" class="st0" width="200.3" height="5.2"/>
	<rect x="614.9" y="56.9" class="st3" width="24.5" height="24.5"/>
	<path class="st0" d="M650.8,92.8H621V63.1h29.7V92.8z M622.3,91.5h27.2V64.3h-27.2V91.5z"/>
	<path class="st0" d="M719,397.2h-61.2v-4.4c0-0.5-0.4-0.9-0.9-0.9l0,0h-21c-0.5,0-0.9,0.4-0.9,0.9l0,0v4.4h-13.1v-4.4
		c0-0.5-0.4-0.9-0.9-0.9h0h-21c-0.5,0-0.9,0.4-0.9,0.9l0,0v4.4h-13.1v-4.4c0-0.5-0.4-0.9-0.9-0.9l0,0h-21c-0.5,0-0.9,0.4-0.9,0.9
		l0,0v4.4h-13.1v-4.4c0-0.5-0.4-0.9-0.9-0.9l0,0h-21c-0.5,0-0.9,0.4-0.9,0.9l0,0v4.4h-13.1v-4.4c0-0.5-0.4-0.9-0.9-0.9l0,0h-21
		c-0.5,0-0.9,0.4-0.9,0.9v0v4.4h-13.1v-4.4c0-0.5-0.4-0.9-0.9-0.9h0h-21c-0.5,0-0.9,0.4-0.9,0.9l0,0v4.4h-13.1v-4.4
		c0-0.5-0.4-0.9-0.9-0.9h0H277.3c-0.5,0-0.9,0.4-0.9,0.9l0,0v4.4h-13.1v-4.4c0-0.5-0.4-0.9-0.9-0.9h0h-21c-0.5,0-0.9,0.4-0.9,0.9v0
		v4.4h-13.1v-4.4c0-0.5-0.4-0.9-0.9-0.9h0h-21c-0.5,0-0.9,0.4-0.9,0.9c0,0,0,0,0,0v4.4h-13.1v-4.4c0-0.5-0.4-0.9-0.9-0.9
		c0,0,0,0,0,0h-21c-0.5,0-0.9,0.4-0.9,0.9l0,0v4.4h-13.1v-4.4c0-0.5-0.4-0.9-0.9-0.9c0,0,0,0,0,0h-21c-0.5,0-0.9,0.4-0.9,0.9
		c0,0,0,0,0,0v4.4h-13.1v-4.4c0-0.5-0.4-0.9-0.9-0.9c0,0,0,0,0,0H98c-0.5,0-0.9,0.4-0.9,0.9c0,0,0,0,0,0v4.4H84v-4.4
		c0-0.5-0.4-0.9-0.9-0.9c0,0,0,0,0,0h-21c-0.5,0-0.9,0.4-0.9,0.9v0v4.4H21c-11.6,0-21,9.4-21,21v9.5c0,11.6,9.4,21,21,21h698
		c11.6,0,21-9.4,21-21v-9.5C740,406.6,730.6,397.2,719,397.2z"/>
	<path class="st0" d="M163.2,354.5c-42,0-76-34-76-76s34-76,76-76s76,34,76,76C239.1,320.5,205.1,354.5,163.2,354.5z M163.2,204.5
		c-40.9,0-74,33.1-74,74s33.1,74,74,74s74-33.1,74-74C237.1,237.7,204,204.6,163.2,204.5z"/>
	<rect x="586.2" y="32.5" class="st0" width="255" height="2"/>
	<rect x="796" y="22" class="st1" width="28" height="28"/>
	<path class="st0" d="M841,34h-34V0h34V34z M808.5,32.5h31v-31h-31V32.5z"/>
</g>
<g>
	<circle class="st3" cx="246.8" cy="595.5" r="59.2"/>
	<circle class="st1" cx="256.5" cy="586.8" r="59.2"/>
	<rect x="406.2" y="634.2" class="st0" width="733" height="2"/>
	<rect x="192.7" y="726.2" class="st0" width="255" height="2"/>
	<rect x="471" y="623.7" class="st1" width="28" height="28"/>
	<path class="st0" d="M516,635.7h-34v-34h34V635.7z M483.5,634.2h31v-31h-31V634.2z"/>
	<rect x="1078" y="623.7" class="st1" width="28" height="28"/>
	<path class="st0" d="M1123,635.7h-34v-34h34V635.7z M1090.5,634.2h31v-31h-31V634.2z"/>
	<path class="st0" d="M1057.2,305.7h-2.4v-65.2c0-20.8-16.9-37.7-37.7-37.7h0H879c-20.8,0-37.7,16.9-37.7,37.7c0,0,0,0,0,0V598
		c0,20.8,16.9,37.7,37.7,37.7c0,0,0,0,0,0h138.1c20.8,0,37.7-16.9,37.7-37.7c0,0,0,0,0,0V352h2.4L1057.2,305.7z"/>
	<path class="st1" d="M1046.8,242.7v357c0,15.6-12.6,28.2-28.2,28.2H879.9c-15.6,0-28.2-12.6-28.2-28.2v-357
		c0-15.6,12.6-28.2,28.2-28.2h16.8c-2.8,6.8,0.5,14.7,7.3,17.4c1.6,0.7,3.3,1,5.1,1h79.1c7.4,0,13.4-6,13.4-13.4
		c0-1.7-0.3-3.4-1-5.1h18C1034.2,214.6,1046.8,227.2,1046.8,242.7z"/>
	<rect x="928.6" y="449.9" class="st0" width="41.3" height="12.2"/>
	<rect x="878.6" y="354.6" class="st0" width="141.2" height="5.2"/>
	<rect x="878.6" y="371.2" class="st0" width="141.2" height="5.2"/>
	<rect x="878.6" y="387.8" class="st0" width="141.2" height="5.2"/>
	<rect x="878.6" y="404.4" class="st0" width="141.2" height="5.2"/>
	<rect x="878.6" y="421.1" class="st0" width="141.2" height="5.2"/>
	<rect x="929.7" y="284.9" class="st3" width="24.5" height="24.5"/>
	<path class="st0" d="M939.1,291v29.7h29.7V291H939.1z M967.5,319.5h-27.2v-27.2h27.2V319.5z"/>
	<path class="st2" d="M1046.8,561.6v38.1c0,15.6-12.6,28.2-28.2,28.2H879.9c-15.6,0-28.2-12.6-28.2-28.2V407.5l116.9,92.3l2,1.6
		l21.7,17.2l2,1.6L1046.8,561.6z"/>
	<circle class="st3" cx="937.2" cy="572.4" r="43.9"/>
	<path class="st0" d="M320.2,728.2c-48,0-87-39-87-87s39-87,87-87s87,39,87,87C407.1,689.3,368.2,728.2,320.2,728.2z M320.2,556.2
		c-46.9,0-85,38.1-85,85s38.1,85,85,85s85-38.1,85-85C405.1,594.3,367.1,556.3,320.2,556.2z"/>
	<path class="st0" d="M950.2,606.2c-30.4,0-55-24.6-55-55s24.6-55,55-55s55,24.6,55,55C1005.1,581.6,980.5,606.2,950.2,606.2z
		 M950.2,498.2c-29.3,0-53,23.7-53,53s23.7,53,53,53s53-23.7,53-53l0,0C1003.1,522,979.4,498.3,950.2,498.2z"/>
</g>
</svg>
