<?xml version="1.0" encoding="utf-8"?>
<!-- Generator: Adobe Illustrator 25.2.0, SVG Export Plug-In . SVG Version: 6.00 Build 0)  -->
<svg version="1.1" id="aaab7897-aa30-48a7-8179-712109baaf81"
	 xmlns="http://www.w3.org/2000/svg" xmlns:xlink="http://www.w3.org/1999/xlink" x="0px" y="0px" viewBox="0 0 982.6 727.9"
	 style="enable-background:new 0 0 982.6 727.9;" xml:space="preserve">
<style type="text/css">
	.st0{fill:#F2F2F2;}
	.st1{fill:#FFFFFF;}
	.st2{fill:#3F3D56;}
	.st3{fill:#FDB827;}
	.st4{fill:#CCCCCC;}
	.st5{fill:#E6E6E6;}
	.st6{fill:#2F2E41;}
</style>
<g>
	<path class="st0" d="M926,699.7c-39.8,28.7-91.4,30.1-141.2,26.6c-7-0.5-13.9-1.1-20.7-1.7c0,0-0.1,0-0.1,0c-0.3,0-0.7-0.1-1-0.1
		c-1.4-0.1-2.8-0.3-4.2-0.4l0.3,0.6l1,2c-0.4-0.7-0.7-1.3-1.1-2c-0.1-0.2-0.2-0.4-0.3-0.6c-12.9-22.5-25.7-45.8-29-71.4
		c-3.4-26.6,6.1-56.8,29.6-69.9c3.1-1.7,6.3-3.1,9.7-4.1c1.4-0.4,2.8-0.8,4.3-1.1c27.3-6.1,54.4,11.2,60.5,38.5
		c2,9.1,1.5,18.6-1.5,27.4c19.9-20.4,16.2-53.4,9.3-81.1c-6.9-27.6-15.2-58.4-1.2-83.2c7.8-13.8,21.4-22.4,36.7-25.8
		c0.5-0.1,0.9-0.2,1.4-0.3c18.3-3.7,37.2-0.4,53.2,9.3c29.3,18.5,44.4,53.5,49.2,87.8C988.7,605.5,971.3,667.1,926,699.7z"/>
	<path class="st1" d="M913.2,611.2c-1.2,12.2-4.1,24.1-8.7,35.4c-4.2,10-10,19.4-17,27.7c-14.3,17.2-33.2,30.1-53.7,38.8
		c-15.7,6.4-32.2,10.9-49,13.2c-7-0.5-13.9-1.1-20.7-1.7c0,0-0.1,0-0.1,0c-0.3,0-0.7-0.1-1-0.1c-1.4-0.1-2.8-0.3-4.2-0.4l0.3,0.6
		l1,2c-0.4-0.7-0.7-1.3-1.1-2c-0.1-0.2-0.2-0.4-0.3-0.6c25.6-25.5,37.2-61.8,31.2-97.4c-3.1-17.4-10.3-33.9-20.9-48
		c1.4-0.4,2.8-0.8,4.3-1.1c4.1,5.5,7.6,11.4,10.6,17.6c10.8,22,14.3,46.9,9.8,71c-4.1,21.8-14.4,42-29.5,58.2c1.3-0.1,2.7-0.2,4-0.3
		c24.9-2.1,49.7-7.5,72.3-18.4c19.3-9.1,36-22.9,48.8-40c13.7-18.8,19.7-41.5,20.7-64.6c1.1-24.7-2.1-49.8-7.7-73.8
		c-5.7-24.6-14.5-48.4-26-70.9c-0.5-1.1-0.1-2.4,0.9-2.9c0.4-0.3,0.9-0.4,1.4-0.3c0.5,0.1,0.9,0.5,1.1,0.9c1.4,2.8,2.8,5.6,4.2,8.4
		c11.2,23.4,19.4,48.1,24.5,73.5C913.1,560.6,915.8,586.2,913.2,611.2z"/>
	<path class="st0" d="M393.7,712.3c20.3,14.6,46.7,15.4,72.1,13.6c3.6-0.3,7.1-0.5,10.6-0.9c0,0,0,0,0.1,0c0.2,0,0.3,0,0.5,0
		c0.7-0.1,1.4-0.1,2.2-0.2l-0.2,0.3l-0.5,1c0.2-0.3,0.4-0.7,0.6-1c0.1-0.1,0.1-0.2,0.2-0.3c6.6-11.5,13.1-23.4,14.8-36.5
		c1.7-13.6-3.1-29-15.1-35.7c-1.6-0.9-3.2-1.6-5-2.1c-0.7-0.2-1.4-0.4-2.2-0.6c-14-3.1-27.8,5.7-30.9,19.7c-1,4.6-0.8,9.5,0.8,14
		c-10.2-10.4-8.3-27.3-4.8-41.4c3.5-14.1,7.8-29.8,0.6-42.5c-4.1-6.9-10.9-11.7-18.8-13.2c-0.2-0.1-0.5-0.1-0.7-0.1
		c-9.3-1.9-19-0.2-27.2,4.8c-15,9.4-22.7,27.3-25.1,44.8C361.7,664.2,370.6,695.7,393.7,712.3z"/>
	<path class="st1" d="M400.2,667.1c0.6,6.2,2.1,12.3,4.4,18.1c2.2,5.1,5.1,9.9,8.7,14.1c7.4,8.7,16.8,15.5,27.5,19.8
		c8,3.3,16.4,5.5,25,6.7c3.6-0.3,7.1-0.5,10.6-0.9c0,0,0,0,0.1,0c0.2,0,0.3,0,0.5,0c0.7-0.1,1.4-0.1,2.2-0.2l-0.2,0.3l-0.5,1
		c0.2-0.3,0.4-0.7,0.6-1c0.1-0.1,0.1-0.2,0.2-0.3c-13.1-13-19-31.6-15.9-49.7c1.6-8.9,5.2-17.3,10.7-24.5c-0.7-0.2-1.4-0.4-2.2-0.6
		c-2.1,2.8-3.9,5.8-5.4,9c-5.5,11.2-7.3,23.9-5,36.2c2.1,11.1,7.3,21.4,15.1,29.7c-0.7,0-1.4-0.1-2-0.2c-12.8-0.8-25.3-4-36.9-9.4
		c-9.9-4.7-18.4-11.7-24.9-20.4c-7-9.6-10.1-21.2-10.6-33c-0.4-12.7,0.9-25.4,4-37.7c2.9-12.6,7.4-24.7,13.3-36.2
		c0.3-0.5,0.1-1.2-0.5-1.5c-0.2-0.1-0.5-0.2-0.7-0.1c-0.2,0.1-0.5,0.2-0.6,0.5c-0.7,1.4-1.4,2.8-2.1,4.3c-5.7,12-9.9,24.6-12.5,37.6
		C400,641.3,399.1,654.3,400.2,667.1z"/>
	<path class="st2" d="M-217.4,19.3H-429c-13.5,0-24.5,11-24.5,24.5v332.5c0,13.5,11,24.5,24.5,24.5h211.6c13.5,0,24.5-11,24.5-24.5
		V43.7C-192.9,30.2-203.8,19.3-217.4,19.3z M-195.8,376.2c0,11.9-9.7,21.6-21.6,21.6H-429c-11.9,0-21.6-9.7-21.6-21.6V43.7
		c0-11.9,9.7-21.6,21.6-21.6h211.6c11.9,0,21.6,9.7,21.6,21.6V376.2z"/>
	<path class="st2" d="M236.1,400.7H24.5C11,400.7,0,389.8,0,376.2V43.7c0-13.5,11-24.5,24.5-24.5h211.6c13.5,0,24.5,11,24.5,24.5
		v332.5C260.5,389.8,249.6,400.7,236.1,400.7z M24.5,22.1c-11.9,0-21.6,9.7-21.6,21.6v332.5c0,11.9,9.7,21.6,21.6,21.6h211.6
		c11.9,0,21.6-9.7,21.6-21.6V43.7c0-11.9-9.7-21.6-21.6-21.6H24.5z"/>
	<path class="st2" d="M-67.7,212.2h-87.8c-0.8,0-1.4-0.6-1.4-1.4s0.6-1.4,1.4-1.4h87.8c0.8,0,1.4,0.6,1.4,1.4
		S-66.9,212.2-67.7,212.2z"/>
	<path class="st2" d="M-86.4,251.6c-0.8,0-1.4-0.6-1.4-1.4c0-0.4,0.2-0.9,0.6-1.1l45.8-34.9c1.9-1.4,2.3-4.2,0.8-6.1
		c-0.2-0.3-0.5-0.6-0.8-0.8l-45.8-34.9c-0.6-0.5-0.8-1.4-0.3-2c0.5-0.6,1.4-0.8,2-0.3l0,0l45.8,34.9c3.2,2.4,3.8,6.9,1.4,10.1
		c-0.4,0.5-0.9,1-1.4,1.4l-45.8,34.9C-85.7,251.5-86.1,251.6-86.4,251.6z"/>
	<path class="st2" d="M384.3,212.2h-87.8c-0.8,0-1.4-0.6-1.4-1.4s0.6-1.4,1.4-1.4h87.8c0.8,0,1.4,0.6,1.4,1.4
		S385.1,212.2,384.3,212.2z"/>
	<path class="st2" d="M365.6,251.6c-0.8,0-1.4-0.6-1.4-1.4c0-0.4,0.2-0.9,0.6-1.1l45.8-34.9c1.9-1.4,2.3-4.2,0.8-6.1
		c-0.2-0.3-0.5-0.6-0.8-0.8l-45.8-34.9c-0.6-0.5-0.8-1.4-0.3-2c0.5-0.6,1.4-0.8,2-0.3l0,0l45.8,34.9c3.2,2.4,3.8,6.9,1.4,10.1
		c-0.4,0.5-0.9,1-1.4,1.4l-45.8,34.9C366.2,251.5,365.9,251.6,365.6,251.6z"/>
	<path class="st3" d="M156.2,153.9h-50.4c-6.8,0-12.2-5.5-12.2-12.2V92.7c0-6.8,5.5-12.2,12.2-12.2h50.4c6.8,0,12.2,5.5,12.2,12.2
		v48.9C168.4,148.4,162.9,153.8,156.2,153.9z"/>
	<path class="st1" d="M165.5,153.1c-0.4,0-0.7-0.2-1-0.4L95.4,83.6c-0.6-0.6-0.6-1.5,0-2c0.6-0.6,1.5-0.6,2,0l69.1,69.1
		c0.6,0.6,0.6,1.5,0,2C166.3,153,165.9,153.1,165.5,153.1L165.5,153.1z"/>
	<path class="st1" d="M96.4,153.1c-0.8,0-1.4-0.6-1.4-1.4c0-0.4,0.2-0.7,0.4-1l69.1-69.1c0.6-0.6,1.5-0.6,2,0s0.6,1.5,0,2l0,0
		l-69.1,69.1C97.2,153,96.8,153.1,96.4,153.1z"/>
	<path class="st2" d="M177.1,229.4H83.5c-9.9,0-18-8.1-18-18s8.1-18,18-18h93.6c9.9,0,18,8.1,18,18S187,229.4,177.1,229.4z
		 M83.5,196.3c-8.3,0-15.1,6.8-15.1,15.1s6.8,15.1,15.1,15.1h93.6c8.3,0,15.1-6.8,15.1-15.1s-6.8-15.1-15.1-15.1H83.5z"/>
	<path class="st2" d="M177.1,284.1H83.5c-9.9,0-18-8.1-18-18s8.1-18,18-18h93.6c9.9,0,18,8.1,18,18S187,284.1,177.1,284.1z
		 M83.5,251c-8.3,0-15.1,6.8-15.1,15.1s6.8,15.1,15.1,15.1h93.6c8.3,0,15.1-6.8,15.1-15.1s-6.8-15.1-15.1-15.1H83.5z"/>
	<path class="st2" d="M177.1,338.8H83.5c-9.9,0-18-8.1-18-18s8.1-18,18-18h93.6c9.9,0,18,8.1,18,18S187,338.8,177.1,338.8z
		 M83.5,305.7c-8.3,0-15.1,6.8-15.1,15.1c0,8.3,6.8,15.1,15.1,15.1h93.6c8.3,0,15.1-6.8,15.1-15.1c0-8.3-6.8-15.1-15.1-15.1H83.5z"
		/>
	<path class="st2" d="M670.5,0.6L461.8,35.2c-13.3,2.2-22.3,14.8-20.1,28.1l54.4,328c2.2,13.3,14.8,22.3,28.1,20.1L733,376.9
		c13.3-2.2,22.3-14.8,20.1-28.1l-54.4-328C696.5,7.4,683.9-1.6,670.5,0.6z M750.3,349.2c1.9,11.8-6,22.9-17.8,24.8l-208.7,34.6
		c-11.8,1.9-22.9-6-24.8-17.8l-54.4-328c-1.9-11.8,6-22.9,17.8-24.8L671,3.4c11.8-1.9,22.9,6,24.8,17.8L750.3,349.2z"/>
	<path class="st4" d="M633.8,135.1l-92.3,15.3c-9.8,1.6-19.1-5-20.7-14.8c-1.6-9.8,5-19.1,14.8-20.7l0,0l92.3-15.3
		c9.8-1.6,19.1,5,20.7,14.8C650.2,124.2,643.6,133.4,633.8,135.1L633.8,135.1z M536,117.7c-8.2,1.4-13.8,9.2-12.4,17.4
		c1.4,8.2,9.1,13.8,17.4,12.4l92.3-15.3c8.2-1.4,13.8-9.2,12.4-17.4c-1.4-8.2-9.1-13.8-17.4-12.4L536,117.7z"/>
	<path class="st4" d="M644.6,200.4l-92.3,15.3c-9.8,1.6-19.1-5-20.7-14.8c-1.6-9.8,5-19.1,14.8-20.7c0,0,0,0,0,0l92.3-15.3
		c9.8-1.6,19.1,5,20.7,14.8C661,189.5,654.4,198.8,644.6,200.4L644.6,200.4z M546.9,183.1c-8.2,1.4-13.8,9.2-12.4,17.4
		c1.4,8.2,9.1,13.8,17.4,12.4l92.3-15.3c8.2-1.4,13.8-9.2,12.4-17.4c-1.4-8.2-9.1-13.8-17.4-12.4L546.9,183.1z"/>
	<path class="st4" d="M655.4,265.7L563.1,281c-9.8,1.6-19.1-5-20.7-14.8c-1.6-9.8,5-19.1,14.8-20.7c0,0,0,0,0,0l92.3-15.3
		c9.8-1.6,19.1,5,20.7,14.8C671.8,254.8,665.2,264.1,655.4,265.7z M557.7,248.4c-8.2,1.4-13.8,9.1-12.5,17.4
		c1.4,8.2,9.1,13.8,17.4,12.5c0,0,0,0,0,0l92.3-15.3c8.2-1.4,13.8-9.1,12.5-17.4c-1.4-8.2-9.1-13.8-17.4-12.5c0,0,0,0,0,0
		L557.7,248.4z"/>
	<path class="st4" d="M666.3,331L574,346.4c-9.8,1.6-19.1-5-20.7-14.8c-1.6-9.8,5-19.1,14.8-20.7l0,0l92.3-15.3
		c9.8-1.6,19.1,5,20.7,14.8C682.7,320.2,676.1,329.4,666.3,331L666.3,331z M568.6,313.7c-8.2,1.4-13.8,9.2-12.4,17.4
		c1.4,8.2,9.2,13.8,17.4,12.4l0,0l92.3-15.3c8.2-1.4,13.8-9.2,12.4-17.4c-1.4-8.2-9.1-13.8-17.4-12.4L568.6,313.7z"/>
	<path class="st2" d="M700.4,40L446.2,82.1c-0.8,0.1-1.5-0.4-1.7-1.2c-0.1-0.8,0.4-1.5,1.2-1.7c0,0,0,0,0,0l254.2-42.2
		c0.8-0.1,1.5,0.4,1.7,1.2C701.7,39.1,701.2,39.8,700.4,40C700.4,40,700.4,40,700.4,40L700.4,40z"/>
	<circle class="st3" cx="473.9" cy="55.1" r="10.1"/>
	<path class="st2" d="M674.6,16l-28.4,4.7c-0.8,0.1-1.5-0.4-1.7-1.2c-0.1-0.8,0.4-1.5,1.2-1.7l28.4-4.7c0.8-0.1,1.5,0.4,1.7,1.2
		C675.9,15.1,675.3,15.8,674.6,16z"/>
	<path class="st2" d="M676,24.5l-28.4,4.7c-0.8,0.1-1.5-0.4-1.7-1.2c-0.1-0.8,0.4-1.5,1.2-1.7l28.4-4.7c0.8-0.1,1.5,0.4,1.7,1.2
		C677.3,23.6,676.7,24.3,676,24.5L676,24.5z"/>
	<path class="st2" d="M677.4,33L649,37.7c-0.8,0.1-1.5-0.4-1.7-1.2c-0.1-0.8,0.4-1.5,1.2-1.7c0,0,0,0,0,0l28.4-4.7
		c0.8-0.1,1.5,0.4,1.7,1.2C678.7,32.1,678.2,32.9,677.4,33C677.4,33,677.4,33,677.4,33z"/>
	<path class="st3" d="M-269.2,235.9h-108c-6.8,0-12.2-5.5-12.2-12.2V114.3c0-6.8,5.5-12.2,12.2-12.2h108c6.8,0,12.2,5.5,12.2,12.2
		v109.4C-256.9,230.4-262.4,235.9-269.2,235.9z"/>
	<path class="st2" d="M-277.1,317.2h-93.6c-9.9,0-18-8.1-18-18s8.1-18,18-18h93.6c9.9,0,18,8.1,18,18S-267.2,317.2-277.1,317.2z
		 M-370.7,284.1c-8.3,0-15.1,6.8-15.1,15.1s6.8,15.1,15.1,15.1h93.6c8.3,0,15.1-6.8,15.1-15.1s-6.8-15.1-15.1-15.1H-370.7z"/>
	<path class="st1" d="M-259.8,233.7c-0.4,0-0.7-0.2-1-0.4l-126.7-126.7c-0.6-0.6-0.6-1.5,0-2s1.5-0.6,2,0c0,0,0,0,0,0l126.7,126.7
		c0.6,0.6,0.6,1.5,0,2C-259.1,233.6-259.4,233.7-259.8,233.7L-259.8,233.7z"/>
	<path class="st1" d="M-386.5,233.7c-0.8,0-1.4-0.6-1.4-1.4c0-0.4,0.2-0.7,0.4-1l126.7-126.7c0.6-0.6,1.5-0.6,2,0
		c0.6,0.6,0.6,1.5,0,2c0,0,0,0,0,0l-126.7,126.7C-385.7,233.6-386.1,233.7-386.5,233.7z"/>
	<path class="st4" d="M928.2,727.5H379.7c-0.8,0-1.4-0.6-1.4-1.4c0-0.8,0.6-1.4,1.4-1.4h548.4c0.8,0,1.4,0.6,1.4,1.4
		C929.6,726.8,929,727.5,928.2,727.5z"/>
	<ellipse class="st5" cx="623.6" cy="718.3" rx="100.8" ry="7.7"/>
	<circle class="st6" cx="626.4" cy="630.4" r="62"/>
	<rect x="635.8" y="679.1" class="st6" width="18.8" height="33.7"/>
	<rect x="598.1" y="679.1" class="st6" width="18.8" height="33.7"/>
	<ellipse class="st6" cx="638.9" cy="713.2" rx="15.7" ry="5.9"/>
	<ellipse class="st6" cx="601.3" cy="712.4" rx="15.7" ry="5.9"/>
	<circle class="st1" cx="624.8" cy="614.7" r="21.2"/>
	<circle class="st2" cx="624.8" cy="614.7" r="7.1"/>
	<path class="st5" d="M686.5,572.8c5-22.4-11-45.1-35.7-50.6c-24.7-5.5-48.9,8.2-53.9,30.6c-5,22.4,11.4,30.7,36.1,36.2
		C657.8,594.5,681.5,595.2,686.5,572.8z"/>
	<g>
		<ellipse transform="matrix(0.357 -0.9341 0.9341 0.357 70.0336 903.351)" class="st6" cx="691.2" cy="400.8" rx="31" ry="9.7"/>
		<ellipse transform="matrix(0.1602 -0.9871 0.9871 0.1602 90.5229 1001.632)" class="st6" cx="633.9" cy="447.6" rx="62" ry="62"/>
		<rect x="605.7" y="496.3" class="st6" width="18.8" height="33.7"/>
		<rect x="643.3" y="496.3" class="st6" width="18.8" height="33.7"/>
		<ellipse class="st6" cx="621.3" cy="530.4" rx="15.7" ry="5.9"/>
		<ellipse class="st6" cx="659" cy="529.6" rx="15.7" ry="5.9"/>
		<path class="st3" d="M573.8,390c-5-22.4,11-45.1,35.7-50.6c24.7-5.5,48.9,8.2,53.9,30.6c5,22.4-11.4,30.7-36.1,36.2
			C602.5,411.7,578.8,412.4,573.8,390z"/>
		
			<ellipse transform="matrix(0.4285 -0.9035 0.9035 0.4285 -56.0923 749.0197)" class="st6" cx="564.1" cy="418.9" rx="9.7" ry="31"/>
	</g>
</g>
</svg>
